<svg height="474pt" viewBox="-11 0 474 474" width="474pt" xmlns="http://www.w3.org/2000/svg"><path d="m434.558594 305.570312c13.226562 13.226563 13.226562 34.671876 0 47.898438-13.226563 13.226562-34.671875 13.226562-47.902344 0l-23.949219-23.949219 47.902344-47.898437zm0 0" fill="#00acea"/><path d="m323.199219 210.171875 7.980469-7.980469 79.429687 79.429688-47.902344 47.898437-79.429687-79.429687 7.992187-7.980469zm0 0" fill="#00efd1"/><path d="m352.6875 73.808594c4.410156 4.410156 4.410156 11.5625 0 15.972656l-24.609375 24.597656c-4.40625 4.410156-11.554687 4.410156-15.960937 0l-6.140626-6.128906-49.289062-49.289062-6.96875-6.972657c-4.410156-4.402343-4.410156-11.550781 0-15.957031l24.609375-24.609375c4.40625-4.410156 11.554687-4.410156 15.960937 0zm0 0" fill="#00efd1"/><path d="m323.199219 210.171875-31.929688 31.9375-65.371093-65.371094 4.429687-5.839843c6.203125-8.167969 13.492187-15.453126 21.660156-21.660157l5.851563-4.4375.046875.058594zm0 0" fill="#fedb41"/><path d="m225.898438 176.738281-36.558594 48.152344-49.292969-49.289063 54-40.992187c8.167969-6.203125 15.449219-13.492187 21.652344-21.660156l40.988281-53.988281 49.289062 49.289062-48.136718 36.550781-5.851563 4.4375c-8.167969 6.207031-15.457031 13.492188-21.660156 21.660157zm0 0" fill="#00acea"/><path d="m248.019531 422.699219h22.578125v43.191406h-263.058594v-43.191406zm0 0" fill="#00efd1"/><path d="m30.117188 379.800781h217.902343v42.898438h-217.902343zm0 0" fill="#00acea"/><path d="m195.476562 231.03125c4.410157 4.40625 4.410157 11.554688 0 15.957031l-24.609374 24.613281c-4.40625 4.410157-11.554688 4.410157-15.960938 0l-62.398438-62.402343c-4.410156-4.40625-4.410156-11.554688 0-15.960938l24.609376-24.609375c4.40625-4.410156 11.554687-4.410156 15.960937 0l6.96875 6.972656 49.292969 49.289063zm0 0" fill="#00efd1"/><g fill="#083863"><path d="m149.246094 277.300781c3.597656 3.644531 8.503906 5.695313 13.625 5.699219h.015625c5.125-.003906 10.035156-2.054688 13.640625-5.699219l24.609375-24.632812c7.53125-7.539063 7.53125-19.753907 0-27.292969l-1.207031-1.207031 26.792968-35.289063 53.226563 53.222656-2.324219 2.324219c-3.128906 3.125-3.128906 8.195313 0 11.316407l103.378906 103.382812c10.5625 10.652344 26.019532 14.839844 40.511719 10.976562 14.496094-3.859374 25.820313-15.183593 29.683594-29.679687 3.859375-14.496094-.328125-29.949219-10.980469-40.511719l-103.378906-103.378906c-3.125-3.125-8.191406-3.125-11.316406 0l-2.324219 2.328125-53.222657-53.230469 35.289063-26.792968 1.199219 1.199218c7.53125 7.535156 19.742187 7.535156 27.273437 0l24.609375-24.597656c7.535156-7.535156 7.535156-19.75 0-27.285156l-62.394531-62.441406c-3.597656-3.648438-8.507813-5.7031255-13.632813-5.710938h-.007812c-5.125.0078125-10.039062 2.0625-13.640625 5.707031l-24.601563 24.632813c-7.542968 7.535156-7.546874 19.757812-.007812 27.300781l2.035156 2.035156-36.769531 48.433594c-5.761719 7.59375-12.53125 14.363281-20.121094 20.128906l-48.441406 36.769531-2.035156-2.035156c-7.53125-7.53125-19.742188-7.53125-27.273438 0l-24.609375 24.609375c-7.535156 7.539063-7.535156 19.761719 0 27.300781zm287.234375 52.21875c0 10.464844-6.300781 19.898438-15.96875 23.902344s-20.796875 1.792969-28.195313-5.609375l-18.292968-18.292969 36.585937-36.585937 18.292969 18.292968c4.867187 4.839844 7.597656 11.429688 7.578125 18.292969zm-37.1875-47.898437-36.585938 36.585937-68.113281-68.113281 36.585938-36.59375zm-87.410157-71.453125-20.621093 20.621093-54.773438-54.773437.207031-.273437c5.765626-7.59375 12.539063-14.363282 20.128907-20.128907l.285156-.21875zm-56.507812-168.480469 24.609375-24.667969c.613281-.625 1.445313-.992187 2.324219-1.019531.875.027344 1.707031.390625 2.316406 1.019531l62.402344 62.417969c1.285156 1.292969 1.285156 3.382812 0 4.675781l-24.613282 24.605469c-.613281.621094-1.449218.96875-2.324218.96875-.871094 0-1.707032-.347656-2.324219-.96875l-62.398437-62.382812c-.617188-.613282-.964844-1.449219-.964844-2.324219 0-.871094.347656-1.707031.964844-2.320313zm-56.488281 99.292969c8.746093-6.644531 16.542969-14.445313 23.183593-23.191407l35.445313-46.6875 36.320313 36.320313-46.683594 35.445313c-8.75 6.644531-16.554688 14.449218-23.199219 23.199218l-35.445313 46.683594-36.320312-36.320312zm-100.722657 57.917969 24.613282-24.609376c.613281-.617187 1.449218-.964843 2.320312-.964843s1.707032.347656 2.324219.964843l62.40625 62.40625c1.277344 1.285157 1.277344 3.363282-.007813 4.640626l-24.613281 24.652343c-.613281.628907-1.445312.988281-2.324219 1.011719-.875-.019531-1.703124-.382812-2.316406-1.011719l-62.398437-62.421875c-1.285157-1.289062-1.285157-3.378906 0-4.667968zm0 0"/><path d="m7.539062 474h263.058594c4.519532-.019531 8.226563-3.59375 8.410156-8.109375v-43.191406c0-4.417969-3.992187-7.699219-8.410156-7.699219h-14.589844v-35.199219c-.003906-2.101562-.855468-4.109375-2.359374-5.578125-1.5-1.464844-3.53125-2.265625-5.628907-2.222656h-217.902343c-2.113282-.050781-4.15625.746094-5.679688 2.210938-1.523438 1.464843-2.398438 3.476562-2.429688 5.589843v35.199219h-14.46875c-2.042968-.050781-4.011718.75-5.441406 2.210938-1.425781 1.460937-2.1835935 3.449218-2.0898435 5.488281v43.191406c0 4.417969 3.1132815 8.109375 7.5312495 8.109375zm30.46875-86h202v27h-202zm-22 43h247v27h-247zm0 0"/></g></svg>