<svg height="512pt" viewBox="0 0 512 512" width="512pt" xmlns="http://www.w3.org/2000/svg"><path d="m240 512h-192c-26.464844 0-48-21.535156-48-48v-416c0-26.464844 21.535156-48 48-48h192c26.464844 0 48 21.535156 48 48v416c0 26.464844-21.535156 48-48 48zm0 0" fill="#d7dee2"/><path d="m0 144h288v224h-288zm0 0" fill="#40a2e7"/><path d="m128 424h32v32h-32zm0 0" fill="#fff"/><path d="m0 144h288v32h-288zm0 0" fill="#168de2"/><path d="m288 144h-127.054688c-20.769531 32.351562-32.945312 70.734375-32.945312 112s12.175781 79.648438 32.945312 112h127.054688zm0 0" fill="#168de2"/><path d="m128 64h96v32h-96zm0 0" fill="#fff"/><path d="m64 64h32v32h-32zm0 0" fill="#fff"/><path d="m203.632812 96h20.367188v-14.863281c-7.089844 4.574219-13.902344 9.503906-20.367188 14.863281zm0 0" fill="#efefef"/><path d="m160.945312 368c27.421876 42.703125 70.015626 74.625 120.160157 88.398438-8.386719 14.066406-23.585938 23.601562-41.105469 23.601562h-192c-26.464844 0-48-21.535156-48-48v32c0 26.464844 21.535156 48 48 48h192c26.464844 0 48-21.535156 48-48v-96zm0 0" fill="#bfc9d1"/><path d="m160.945312 144h127.054688v-90.398438c-53.167969 12.621094-98.367188 45.726563-127.054688 90.398438zm0 0" fill="#bfc9d1"/><path d="m512 256c0 97.203125-78.796875 176-176 176s-176-78.796875-176-176 78.796875-176 176-176 176 78.796875 176 176zm0 0" fill="#e76e54"/><path d="m344 352c-52.945312 0-96-43.054688-96-96s43.054688-96 96-96 96 43.054688 96 96v40.433594l-81.328125-40.671875 14.320313-28.625 33.917968 16.960937c-5.613281-29.617187-31.679687-52.097656-62.910156-52.097656-35.296875 0-64 28.703125-64 64s28.703125 64 64 64zm0 0" fill="#fff"/></svg>