<svg height="496pt" viewBox="0 0 496 496" width="496pt" xmlns="http://www.w3.org/2000/svg"><path d="m248 8c-132.546875 0-240 107.453125-240 240s107.453125 240 240 240 240-107.453125 240-240-107.453125-240-240-240zm185.601562 314.640625c-30.457031 75.761719-103.914062 125.402344-185.570312 125.402344s-155.109375-49.640625-185.566406-125.402344c-33.570313-83.507813-7.222656-179.152344 64.371094-233.691406 71.59375-54.539063 170.800781-54.539063 242.394531 0 71.59375 54.539062 97.9375 150.183593 64.371093 233.691406zm0 0" fill="#d80027"/><g fill="#fff"><path d="m248 48c-110.457031 0-200 89.542969-200 200s89.542969 200 200 200 200-89.542969 200-200-89.542969-200-200-200zm91.28125 121.441406-59.441406 77.117188c0 .5625.082031 1.203125.082031 1.761718v1.28125c.011719.136719-.015625.277344-.082031.398438-.015625 1.238281-.148438 2.46875-.398438 3.679688-.3125 1.800781-.792968 3.570312-1.441406 5.28125-.078125.160156-.078125.320312-.160156.480468-.679688 1.746094-1.511719 3.433594-2.480469 5.039063-.238281.320312-.320313.640625-.480469.878906-1.226562 1.902344-2.648437 3.671875-4.238281 5.28125-12.515625 12.476563-32.765625 12.476563-45.28125 0-1.691406-1.679687-3.171875-3.558594-4.398437-5.601563-.480469-.71875-.882813-1.4375-1.28125-2.160156-.882813-1.605468-1.605469-3.292968-2.160157-5.039062-.261719-.839844-.472656-1.695313-.640625-2.558594-.234375-.785156-.394531-1.585938-.480468-2.402344-.1875-1.082031-.296876-2.179687-.320313-3.277344-.171875-3.011718.097656-6.03125.800781-8.960937.160156-.640625.320313-1.199219.480469-1.839844 1.492187-5.082031 4.242187-9.707031 8-13.441406 1.523437-1.511719 3.183594-2.875 4.960937-4.078125 1.441407-.882812 2.960938-1.601562 4.398438-2.320312.402344-.160157.722656-.402344 1.121094-.5625 3.765625-1.515626 7.78125-2.328126 11.839844-2.398438l78.878906-59.28125c3.613281-2.769531 8.71875-2.4375 11.9375.785156 3.222656 3.21875 3.554687 8.324219.785156 11.9375zm0 0"/><path d="m230.34375 221.3125c1.402344-.894531 2.875-1.671875 4.398438-2.328125-1.523438.65625-2.996094 1.433594-4.398438 2.328125zm0 0"/><path d="m235.808594 218.398438c3.757812-1.539063 7.777344-2.351563 11.839844-2.398438-4.0625.042969-8.082032.855469-11.839844 2.398438zm0 0"/><path d="m274.847656 265.382812c-1.214844 1.894532-2.632812 3.652344-4.222656 5.242188 1.585938-1.59375 3-3.351562 4.222656-5.242188zm0 0"/><path d="m277.832031 259.449219c-.679687 1.738281-1.515625 3.414062-2.496093 5.007812.976562-1.59375 1.808593-3.269531 2.496093-5.007812zm0 0"/><path d="m339.28125 169.441406-59.441406 77.117188c-.078125-1.910156-.316406-3.808594-.71875-5.679688-.429688-1.886718-1.019532-3.730468-1.761719-5.519531-.160156-.398437-.480469-.800781-.640625-1.28125-.71875-1.277344-1.277344-2.636719-2.160156-3.917969-1.144532-1.726562-2.457032-3.335937-3.917969-4.800781-1.539063-1.558594-3.257813-2.929687-5.121094-4.078125-.222656-.164062-.464843-.300781-.71875-.402344-1.53125-1.023437-3.167969-1.882812-4.878906-2.558594-.097656-.0625-.210937-.09375-.320313-.082031-3.800781-1.488281-7.84375-2.246093-11.921874-2.238281l78.878906-59.28125c3.613281-2.769531 8.71875-2.4375 11.9375.785156 3.222656 3.21875 3.554687 8.324219.785156 11.9375zm0 0"/><path d="m277.351562 235.382812c.75 1.769532 1.335938 3.601563 1.753907 5.472657-.414063-1.875-1-3.707031-1.753907-5.472657zm0 0"/><path d="m259.886719 218.296875c1.707031.707031 3.347656 1.558594 4.90625 2.550781-1.558594-.992187-3.199219-1.84375-4.90625-2.550781zm0 0"/><path d="m274.558594 230.191406c.804687 1.253906 1.515625 2.566406 2.128906 3.921875-.613281-1.359375-1.324219-2.667969-2.128906-3.921875zm0 0"/><path d="m247.648438 216c4.101562-.039062 8.175781.699219 12 2.183594-3.824219-1.488282-7.898438-2.230469-12-2.183594zm0 0"/><path d="m279.105469 240.855469c.417969 1.886719.671875 3.804687.757812 5.738281-.078125-1.933594-.332031-3.851562-.757812-5.738281zm0 0"/><path d="m265.550781 221.238281c1.832031 1.203125 3.53125 2.585938 5.074219 4.136719-1.546875-1.546875-3.246094-2.933594-5.074219-4.136719zm0 0"/></g><path d="m280 248c0 17.671875-14.328125 32-32 32s-32-14.328125-32-32 14.328125-32 32-32 32 14.328125 32 32zm0 0" fill="#006df0"/><path d="m248 0c-136.964844 0-248 111.035156-248 248s111.035156 248 248 248 248-111.035156 248-248c-.15625-136.902344-111.097656-247.84375-248-248zm0 480c-128.128906 0-232-103.871094-232-232s103.871094-232 232-232 232 103.871094 232 232c-.144531 128.070312-103.929688 231.855469-232 232zm0 0"/><path d="m233.328125 104.703125h.800781c4.535156-.480469 9.207032-.703125 13.871094-.703125h1.3125c4.417969 0 8-3.582031 8-8s-3.582031-8-8-8h-1.3125c-5.183594 0-10.398438.246094-15.441406.742188-4.242188.425781-7.402344 4.105468-7.191406 8.363281.214843 4.257812 3.730468 7.597656 7.992187 7.597656zm0 0"/><path d="m286.648438 109.238281c4.878906 1.363281 9.6875 2.980469 14.398437 4.839844 4.109375 1.628906 8.757813-.386719 10.386719-4.492187 1.625-4.109376-.386719-8.761719-4.496094-10.386719-5.222656-2.058594-10.542969-3.847657-15.945312-5.367188-4.253907-1.1875-8.664063 1.296875-9.855469 5.550781-1.1875 4.25 1.292969 8.664063 5.542969 9.855469zm0 0"/><path d="m179.832031 120.121094c1.246094-.003906 2.472657-.296875 3.582031-.855469 4.519532-2.269531 9.152344-4.300781 13.882813-6.089844 3.917969-1.6875 5.824219-6.152343 4.328125-10.152343-1.496094-3.996094-5.863281-6.117188-9.929688-4.816407-5.253906 1.984375-10.398437 4.242188-15.414062 6.761719-3.316406 1.660156-5.058594 5.386719-4.199219 8.996094.855469 3.609375 4.078125 6.160156 7.789063 6.15625zm0 0"/><path d="m96 255.855469c4.417969 0 8-3.582031 8-8 0-5.050781.269531-10.097657.800781-15.121094.464844-4.390625-2.71875-8.332031-7.113281-8.796875-4.394531-.46875-8.332031 2.714844-8.800781 7.109375-.585938 5.582031-.882813 11.191406-.886719 16.800781-.003906 2.125.839844 4.160156 2.339844 5.664063 1.5 1.5 3.535156 2.34375 5.660156 2.34375zm0 0"/><path d="m135.496094 153.808594c2.257812 0 4.410156-.953125 5.929687-2.625 3.394531-3.734375 6.984375-7.292969 10.75-10.65625 3.300781-2.9375 3.59375-7.996094.65625-11.296875s-7.996093-3.59375-11.296875-.65625c-4.203125 3.742187-8.207031 7.695312-12 11.851562-2.132812 2.339844-2.679687 5.722657-1.398437 8.617188 1.28125 2.898437 4.152343 4.765625 7.320312 4.765625zm0 0"/><path d="m103.3125 200.609375c4.121094 1.597656 8.753906-.449219 10.351562-4.570313 1.832032-4.710937 3.910157-9.324218 6.214844-13.824218 1.40625-2.550782 1.316406-5.664063-.238281-8.128906-1.554687-2.464844-4.324219-3.886719-7.234375-3.71875-2.90625.171874-5.492188 1.910156-6.75 4.535156-2.570312 4.996094-4.875 10.117187-6.902344 15.355468-1.601562 4.117188.441406 8.75 4.558594 10.351563zm0 0"/><path d="m440.710938 326.152344c35.292968-86.894532 8.066406-186.65625-66.46875-243.578125-74.535157-56.921875-177.949219-56.921875-252.484376 0-74.535156 56.921875-101.761718 156.683593-66.46875 243.578125.078126.152344.101563.320312.191407.472656 31.921875 78.238281 108.019531 129.378906 192.519531 129.378906s160.597656-51.140625 192.519531-129.378906c.089844-.152344.113281-.320312.191407-.472656zm-192.710938-270.152344c61.417969-.023438 119.136719 29.347656 155.269531 79.011719 36.136719 49.664062 46.316407 113.621093 27.394531 172.050781-8.148437-8.550781-17.15625-16.234375-26.886718-22.925781 14.828125-63.1875-10.136719-129.054688-63.121094-166.535157-2.328125-1.707031-5.390625-2.027343-8.019531-.839843-2.628907 1.183593-4.417969 3.695312-4.675781 6.566406-.261719 2.871094 1.042968 5.664063 3.414062 7.304687 46.023438 32.609376 68.714844 89.128907 58.015625 144.511719-30.070313-16.796875-63.082031-27.683593-97.246094-32.074219l53.457031-68.734374c5.289063-6.777344 4.695313-16.4375-1.386718-22.519532-6.082032-6.078125-15.742188-6.664062-22.519532-1.367187l-74.101562 57.597656c-19.78125.09375-36.449219 14.789063-39.019531 34.402344-38.988281 4.277343-76.554688 17.097656-110.023438 37.550781-1.105469.402344-2.109375 1.046875-2.933593 1.886719-11.019532 7.222656-21.175782 15.675781-30.28125 25.191406-18.929688-58.429687-8.75-122.394531 27.382812-172.0625 36.136719-49.667969 93.859375-79.039063 155.28125-79.015625zm-24 192c0-11.449219 8.089844-21.304688 19.320312-23.535156 11.230469-2.234375 22.476563 3.777344 26.855469 14.359375 4.378907 10.578125.675781 22.777343-8.847656 29.136719-9.523437 6.359374-22.210937 5.105468-30.304687-2.992188-4.511719-4.492188-7.042969-10.601562-7.023438-16.96875zm52.289062-28.28125c-2.714843-2.636719-5.792968-4.867188-9.144531-6.621094l64.34375-50.027344c.417969-.300781.992188-.265624 1.367188.089844.355469.371094.386719.945313.074219 1.351563l-50.019532 64.289062c-1.765625-3.324219-3.996094-6.382812-6.621094-9.082031zm-28.289062 220.28125c-76.632812-.078125-145.90625-45.652344-176.304688-116 9.308594-10.96875 20.140626-20.546875 32.160157-28.449219.082031 0 .160156 0 .25-.039062 1.167969-.449219 2.222656-1.160157 3.078125-2.078125 31.171875-18.984375 66.125-30.914063 102.402344-34.945313 4.585937 17.472657 20.378906 29.652344 38.445312 29.652344s33.859375-12.179687 38.449219-29.652344c58.710937 7.390625 109.441406 31.488281 137.855469 65.511719-30.402344 70.355469-99.691407 115.9375-176.335938 116zm0 0"/></svg>